<svg width="50" height="50" viewBox="0 0 50 50" fill="none" xmlns="http://www.w3.org/2000/svg">
<g clip-path="url(#clip0_1_867)">
<path d="M43.1687 0H6.72328C3.01033 0 0.000244141 3.01648 0.000244141 6.7376V43.2622C0.000244141 46.9833 3.0102 49.9998 6.72328 49.9998H24.698L24.7286 32.1325H20.0967C19.4948 32.1325 19.0062 31.6448 19.0039 31.0415L18.9817 25.2822C18.9794 24.6756 19.4694 24.1827 20.0747 24.1827H24.6981V18.6177C24.6981 12.1596 28.6338 8.64311 34.3824 8.64311H39.0996C39.7031 8.64311 40.1925 9.13346 40.1925 9.73842V14.5947C40.1925 15.1994 39.7035 15.6897 39.1002 15.69L36.2053 15.6914C33.079 15.6914 32.4737 17.1802 32.4737 19.3651V24.1828H39.3432C39.9977 24.1828 40.5056 24.7556 40.4284 25.4071L39.7473 31.1664C39.6821 31.7175 39.2158 32.1328 38.662 32.1328H32.5043L32.4737 50H43.1689C46.8819 50 49.8918 46.9835 49.8918 43.2625V6.7376C49.8917 3.01648 46.8817 0 43.1687 0Z" fill="white"/>
<path d="M24.7286 32.1325L24.698 49.9998L32.4737 50L32.5043 32.1328H38.662C39.2158 32.1328 39.6821 31.7175 39.7473 31.1664L40.4284 25.4071C40.5056 24.7556 39.9977 24.1828 39.3432 24.1828H32.4737V19.3651C32.4737 17.1802 33.079 15.6914 36.2053 15.6914L39.1002 15.69C39.7035 15.6897 40.1925 15.1994 40.1925 14.5947V9.73842C40.1925 9.13346 39.7031 8.64311 39.0996 8.64311H34.3824C28.6338 8.64311 24.6981 12.1596 24.6981 18.6177V24.1827H20.0747C19.4694 24.1827 18.9794 24.6756 18.9817 25.2822L19.0039 31.0415C19.0062 31.6448 19.4948 32.1325 20.0967 32.1325H24.7286Z" fill="#475993"/>
</g>
<defs>
<clipPath id="clip0_1_867">
<rect width="49.892" height="50" fill="white"/>
</clipPath>
</defs>
</svg>
